<svg width="30" height="30" viewBox="0 0 30 30" fill="none" xmlns="http://www.w3.org/2000/svg">
<path d="M25.5029 13.8043H16.1006V4.43333C16.1006 4.10085 15.9685 3.78193 15.7334 3.54687C15.4982 3.31171 15.1794 3.17969 14.8469 3.17969C11.6985 3.18795 8.68215 4.44597 6.46059 6.67709C4.23917 8.90831 2.99453 11.9301 3.00002 15.0786C3.00553 18.2271 4.26079 21.2447 6.49011 23.4678C8.71937 25.6912 11.7403 26.9386 14.8887 26.936C18.0372 26.9332 21.0559 25.6805 23.2813 23.4532C25.5066 21.2258 26.7568 18.2062 26.7568 15.0577C26.7568 14.7252 26.6247 14.4063 26.3896 14.1712C26.1545 13.9361 25.8356 13.804 25.5032 13.804L25.5029 13.8043ZM21.4912 21.7023C20.0826 23.1057 18.2642 24.0246 16.2986 24.326C14.3331 24.6276 12.3227 24.2961 10.5582 23.3797C8.79352 22.4632 7.36635 21.0091 6.48253 19.2278C5.59882 17.4465 5.30468 15.4303 5.6427 13.4707C5.98061 11.5112 6.93306 9.71002 8.36232 8.32761C9.79155 6.94521 11.6236 6.05324 13.5931 5.78073V15.0577C13.5931 15.3902 13.7253 15.709 13.9603 15.9441C14.1955 16.1792 14.5143 16.3113 14.8468 16.3113H24.1551C23.888 18.3534 22.951 20.2493 21.4911 21.702L21.4912 21.7023Z" fill="#22AD01"/>
<path d="M25.5554 4.44468C24.7839 3.66758 23.8659 3.05136 22.8544 2.63176C21.843 2.21205 20.7583 1.99739 19.6633 2.00002C19.3308 2.00002 19.0119 2.13214 18.7769 2.36721C18.5417 2.60237 18.4097 2.92119 18.4097 3.25367V10.3367C18.4097 10.6692 18.5417 10.9881 18.7769 11.2232C19.0119 11.4583 19.3308 11.5904 19.6633 11.5904H26.7464C27.0789 11.5904 27.3977 11.4583 27.6328 11.2232C27.8679 10.988 28 10.6692 28 10.3367C28.0027 9.24164 27.788 8.15705 27.3684 7.1457C26.9487 6.13425 26.3325 5.21617 25.5554 4.44463L25.5554 4.44468ZM20.917 9.08316V4.66407C21.997 4.90525 22.9862 5.44892 23.7687 6.23143C24.5513 7.01394 25.0949 8.00314 25.3361 9.08321L20.917 9.08316Z" fill="#22AD01"/>
</svg>
