<svg width="30" height="30" viewBox="0 0 30 30" fill="none" xmlns="http://www.w3.org/2000/svg">
<path fill-rule="evenodd" clip-rule="evenodd" d="M7.81592 6.50031C7.81592 4.46575 9.46526 2.81641 11.4998 2.81641H23.4998C25.5344 2.81641 27.1837 4.46575 27.1837 6.50031C27.1837 8.53488 25.5344 10.1842 23.4998 10.1842H11.4998C9.46526 10.1842 7.81592 8.53488 7.81592 6.50031ZM11.4998 5.18422C10.773 5.18422 10.1837 5.77346 10.1837 6.50031C10.1837 7.22717 10.773 7.81641 11.4998 7.81641H23.4998C24.2267 7.81641 24.8159 7.22717 24.8159 6.50031C24.8159 5.77346 24.2267 5.18422 23.4998 5.18422H11.4998ZM2.81592 15.5003C2.81592 13.4657 4.46526 11.8164 6.49983 11.8164H17.4998C19.5344 11.8164 21.1837 13.4657 21.1837 15.5003C21.1837 17.5349 19.5344 19.1842 17.4998 19.1842H6.49983C4.46526 19.1842 2.81592 17.5349 2.81592 15.5003ZM6.49983 14.1842C5.77297 14.1842 5.18374 14.7735 5.18374 15.5003C5.18374 16.2272 5.77297 16.8164 6.49983 16.8164H17.4998C18.2267 16.8164 18.8159 16.2272 18.8159 15.5003C18.8159 14.7735 18.2267 14.1842 17.4998 14.1842H6.49983ZM7.81592 24.5003C7.81592 22.4657 9.46526 20.8164 11.4998 20.8164H23.4998C25.5344 20.8164 27.1837 22.4657 27.1837 24.5003C27.1837 26.5349 25.5344 28.1842 23.4998 28.1842H11.4998C9.46526 28.1842 7.81592 26.5349 7.81592 24.5003ZM11.4998 23.1842C10.773 23.1842 10.1837 23.7735 10.1837 24.5003C10.1837 25.2272 10.773 25.8164 11.4998 25.8164H23.4998C24.2267 25.8164 24.8159 25.2272 24.8159 24.5003C24.8159 23.7735 24.2267 23.1842 23.4998 23.1842H11.4998Z" fill="#22AD01"/>
</svg>
