<svg width="34" height="34" viewBox="0 0 34 34" fill="none" xmlns="http://www.w3.org/2000/svg">
<path fill-rule="evenodd" clip-rule="evenodd" d="M19.9531 4C20.0207 4 20.0869 4.00535 20.1516 4.01566H20.2779C20.6183 4.01566 20.9439 4.15446 21.1796 4.39999L27.4713 10.9537C27.6948 11.1865 27.8196 11.4967 27.8196 11.8194V23.2011C27.8405 26.4768 25.261 29.1795 21.9882 29.3124C21.9713 29.3131 21.9544 29.3134 21.9375 29.3134H12.0296C11.9955 29.3141 11.9662 29.314 11.9463 29.3138L11.9162 29.3135L11.8994 29.3134C11.8901 29.3134 11.8809 29.3133 11.8716 29.3131C8.56146 29.2395 5.9369 26.5004 6.00116 23.1924V9.89775C6.00116 9.88793 6.00127 9.87812 6.0015 9.8683C6.0784 6.60562 8.75309 4.00447 12.0159 4.01566H19.7547C19.8193 4.00535 19.8856 4 19.9531 4ZM12.0137 6.51566H18.7031V8.8635C18.7031 11.3165 20.6868 13.3052 23.1395 13.3121L23.1431 13.3121H25.3196V23.2052H25.3195L25.3196 23.2142C25.3333 25.1357 23.8269 26.7232 21.9102 26.8134H12.0137C12.0013 26.8134 11.989 26.8136 11.9766 26.814L11.9668 26.8139L11.9408 26.8136L11.9188 26.8135C9.98824 26.766 8.45879 25.1647 8.50086 23.2324L8.50116 23.2052V9.91359C8.55308 8.01851 10.1099 6.50835 12.0089 6.51565V6.51566H12.0137ZM23.1451 10.8121H23.8698L21.2031 8.03439V8.8635C21.2031 9.93777 22.0707 10.8083 23.1451 10.8121ZM16.774 17.3658C17.8778 17.631 19.3402 17.9824 19.3402 19.7145C19.3402 20.8526 18.5077 21.7273 17.2959 21.9802V23.2026H15.673V21.917C14.5349 21.5903 13.7656 20.6419 13.7656 19.4511H15.5255C15.5255 20.0096 15.9681 20.3679 16.6003 20.3679C17.1905 20.3679 17.5804 20.115 17.5804 19.7145C17.5804 19.2986 17.0186 19.1572 16.3299 18.9839C15.2387 18.7093 13.8289 18.3545 13.8289 16.7007C13.8289 15.6258 14.5771 14.7933 15.673 14.5404V13.2969H17.2959V14.5614C18.5499 14.8776 19.1084 15.9103 19.1084 16.9957H17.2642C17.2748 16.511 16.9376 16.1316 16.3474 16.1316C15.8627 16.1316 15.5676 16.3424 15.5676 16.6901C15.5676 17.0759 16.1049 17.205 16.774 17.3658Z" fill="#22AD01"/>
</svg>
